<svg id="3fb72594-bafc-49a5-ac19-9b99b3c8499b" data-name="66403d85-23fe-41db-954e-96be179fcce5" xmlns="http://www.w3.org/2000/svg" viewBox="0 0 1000 1000"><title>Artboard 1</title><path d="M890.24,408.36A48.84,48.84,0,0,1,939,457.14v445.3a48.84,48.84,0,0,1-48.78,48.78H109.76A48.84,48.84,0,0,1,61,902.44V457.14a48.84,48.84,0,0,1,48.78-48.78H890.24m0-48.78H109.76A97.56,97.56,0,0,0,12.2,457.14h0v445.3A97.56,97.56,0,0,0,109.76,1000H890.24a97.56,97.56,0,0,0,97.56-97.56V457.14A97.56,97.56,0,0,0,890.24,359.58Z" style="fill:#fff"/><path d="M158.54,393.63a24.38,24.38,0,0,1-24.39-24.37V24.39a24.39,24.39,0,0,1,48.78,0V369.24a24.38,24.38,0,0,1-24.37,24.39Z" style="fill:#fff"/><path d="M329.27,876.62c-107.59,0-195.12-88.32-195.12-196.84S221.68,483,329.27,483s195.12,88.3,195.12,196.81S436.86,876.62,329.27,876.62Zm0-344.87c-80.7,0-146.34,66.43-146.34,148s65.64,148.06,146.34,148.06S475.61,761.4,475.61,679.75,410,531.75,329.27,531.75Z" style="fill:#fff"/><path d="M841.46,599.51H597.56a24.39,24.39,0,1,1,0-48.78h243.9a24.39,24.39,0,1,1,0,48.78Z" style="fill:#fff"/><path d="M841.46,698H597.56a24.39,24.39,0,1,1,0-48.78h243.9a24.39,24.39,0,1,1,0,48.78Z" style="fill:#fff"/><path d="M841.46,796.54H597.56a24.39,24.39,0,1,1-.05-48.78h244a24.39,24.39,0,1,1,0,48.78Z" style="fill:#fff"/></svg>